<?xml version="1.0" encoding="utf-8"?>
<!-- Generator: Adobe Illustrator 21.0.0, SVG Export Plug-In . SVG Version: 6.00 Build 0)  -->
<svg version="1.1" xmlns="http://www.w3.org/2000/svg" xmlns:xlink="http://www.w3.org/1999/xlink" x="0px" y="0px"
	 viewBox="0 0 500 500" style="enable-background:new 0 0 500 500;" xml:space="preserve">
<style type="text/css">
	.st0{fill:none;stroke:#000000;stroke-width:27.2151;stroke-linecap:round;stroke-miterlimit:10;}
	.st1{fill:none;stroke:#000000;stroke-width:27.2151;stroke-miterlimit:10;}
</style>
<g id="Layer_1">
</g>
<g id="Layer_2">
	<line class="st0" x1="339.7" y1="339.7" x2="424.5" y2="424.5"/>
	<g>
		<g>
			<path d="M252.5,61.8c0.3,0,0.6,0,0.9,0.1c8.3,1.5,16,25.4,18,56c19.8-15.5,38.9-25,48.8-25c2.1,0,3.8,0.4,5,1.4
				c6.7,5.2,2.4,30-10.1,57.9c11.7-2.1,22.7-3.1,31.9-3.1c14.5,0,24.6,2.5,26.7,7.2c3.5,7.7-11.8,27.6-35.9,46.6
				c29.2,9.2,50.5,22.4,50,30.9c-0.5,8.5-23.3,19-53.4,24.6c21.6,21.7,34.3,43.3,29.9,50.6c-1.9,3.1-7.7,4.7-16.1,4.7
				c-10.9,0-26.1-2.6-42.7-7.7c9,29.3,10.3,54.3,3,58.7c-1,0.6-2.2,0.9-3.6,0.9c-9.4,0-28.1-12.1-47-30.8
				c-5.6,30.1-16.1,52.9-24.6,53.4c-0.1,0-0.2,0-0.3,0c-8.5,0-21.5-21.2-30.5-50.1c-17.1,21.7-35.1,36.3-44.1,36.3
				c-0.9,0-1.8-0.2-2.5-0.5c-7.7-3.5-9.5-28.5-4.1-58.6c-19.1,8.5-36.7,13.2-47.6,13.2c-5.1,0-8.7-1-10.4-3.1
				c-5.2-6.7,4.8-29.7,23.7-53.8c-30.5-1.9-54.4-9.7-56-18c-1.5-8.3,18.1-24,45.9-36.6c-26.1-15.9-43.7-33.9-41.2-41.9
				c2.2-7,20.7-11.5,45.3-11.5c4,0,8.1,0.1,12.4,0.4c-15.8-26.2-23-50.3-17-56.3c1.4-1.4,3.8-2.1,7.1-2.1c10.4,0,29.2,7.1,49.3,19.1
				c-1.8-30.6,3-55.3,11.1-57.8c0.5-0.2,1.1-0.2,1.7-0.2c8.7,0,25.4,17,40.2,41.5C229,81,244,61.8,252.5,61.8 M252.5,34.6
				c-13.3,0-25.7,7.7-38,23.4c-0.2,0.3-0.5,0.6-0.7,0.9c0,0,0,0,0,0c-13.1-13.5-25-19.8-37.3-19.8c-3.3,0-6.6,0.5-9.7,1.5
				c-6.4,2-15.4,7-21.7,19.7c-2.7,5.4-4.7,11.8-6.2,19.5c-0.2,0.9-0.3,1.7-0.5,2.6c-8.1-2.6-16.4-4.4-23.9-4.4
				c-13.4,0-21.7,5.5-26.3,10.1c-4.8,4.8-10.4,13.4-10.1,27.5c0.1,6,1.3,12.6,3.6,20.1c0.3,0.8,0.5,1.7,0.8,2.5
				c-2.9,0.5-5.6,1.1-8.2,1.7c-18.2,4.6-29.5,13.5-33.6,26.6c-2,6.4-3,16.7,3.9,29c2.9,5.3,7,10.6,12.5,16.2
				c0.6,0.6,1.2,1.2,1.9,1.9c-0.7,0.5-1.4,1.1-2.1,1.6c-6.1,4.9-10.8,9.7-14.4,14.5c-8.3,11.4-8.6,21.7-7.3,28.4
				c1.2,6.6,5.1,16.1,16.9,23.9c5,3.3,11.1,6.1,18.6,8.5c0.8,0.3,1.7,0.5,2.5,0.8c-0.4,0.8-0.7,1.6-1.1,2.4
				c-3.2,7.2-5.1,13.6-6,19.6c-2,13.9,2.5,23.2,6.6,28.5c4.9,6.2,14.3,13.6,31.8,13.6c5.6,0,11.5-0.7,17.3-1.9
				c0,0.9,0.1,1.8,0.2,2.6c0.5,7.8,1.8,14.4,3.8,20.1c4.7,13.3,13,19.4,19.1,22.2c4.3,1.9,8.9,2.9,13.7,2.9c11,0,22.2-4.9,35.2-15.4
				c0.4,0.6,0.7,1.3,1.1,1.9c4,6.6,8.1,11.8,12.4,15.9c9.8,9.3,19.5,11.3,25.9,11.3c0.6,0,1.3,0,1.9-0.1c6.7-0.4,16.7-3.1,25.8-13.9
				c3.9-4.6,7.4-10.3,10.7-17.5c0.4-0.8,0.7-1.6,1.1-2.4c12.2,7.6,22.8,11.3,32.4,11.3c6.4,0,12.5-1.7,17.7-4.8
				c5.8-3.5,13.3-10.5,16.4-24.3c1.3-5.9,1.7-12.6,1.3-20.4c0-0.9-0.1-1.8-0.2-2.6c2.8,0.2,5.5,0.3,8,0.3c19,0,32.2-6,39.3-17.8
				c3.5-5.7,6.9-15.5,3.2-29.1c-1.6-5.8-4.3-11.9-8.3-18.7c-0.4-0.8-0.9-1.5-1.4-2.3c0.8-0.4,1.6-0.7,2.4-1.1
				c7.1-3.3,12.9-6.8,17.5-10.7c10.8-9.1,13.5-19,13.9-25.8c0.4-6.7-1.1-16.9-10.7-27.2c-4.1-4.4-9.3-8.6-16-12.7
				c-0.7-0.5-1.5-0.9-2.3-1.4c0.6-0.7,1.1-1.4,1.6-2.1c4.8-6.2,8.2-12,10.5-17.6c5.3-13.1,3.1-23.1,0.4-29.3
				c-3.1-7-10.3-16.2-26.6-20.5c-5.3-1.4-11.4-2.3-18.3-2.6c0.2-0.9,0.3-1.8,0.5-2.6c1.3-7.7,1.7-14.4,1.1-20.4
				c-1.4-14-8-21.9-13.3-26.1c-4.2-3.3-11.3-7.2-21.8-7.2c-9.1,0-19.1,3.1-28.7,7.6c-0.3-0.9-0.5-1.7-0.8-2.5
				c-2.4-7.5-5.2-13.6-8.5-18.6c-7.7-11.8-17.3-15.7-23.9-16.9C256.4,34.8,254.5,34.6,252.5,34.6L252.5,34.6z"/>
		</g>
		<circle class="st1" cx="224.9" cy="224.9" r="52.7"/>
	</g>
	<path d="M399.3,391c0,0-13.8-14.8-9.9-33.4c3.9-18.6,25.1-30.6,38.7-48.8C428,308.8,464.4,361.9,399.3,391z"/>
	<path d="M390.6,399.3c0,0-14.8-13.8-33.4-9.9s-30.6,25.1-48.8,38.7C308.4,428,361.5,464.4,390.6,399.3z"/>
</g>
</svg>
